<?xml version="1.0" encoding="UTF-8" standalone="no"?><!DOCTYPE svg PUBLIC "-//W3C//DTD SVG 1.1//EN" "http://www.w3.org/Graphics/SVG/1.1/DTD/svg11.dtd"><svg width="100%" height="100%" viewBox="0 0 7434 14188" version="1.1" xmlns="http://www.w3.org/2000/svg" xmlns:xlink="http://www.w3.org/1999/xlink" xml:space="preserve" xmlns:serif="http://www.serif.com/" style="fill-rule:evenodd;clip-rule:evenodd;stroke-linejoin:round;stroke-miterlimit:2;"><rect id="Artboard1" x="0" y="0" width="7433.333" height="14187.5" style="fill:none;"/><g><g><g id="box-semi-bold" serif:id="box semi bold"><path d="M6820.8,2152.394c0,-580.242 -346.453,-946.047 -910.719,-946.047l-4383.214,0c-564.266,0 -910.339,365.805 -910.339,946.047l0,9882.931c0,580.204 346.073,946.009 910.339,946.009l4383.214,0c564.266,0 910.719,-365.805 910.719,-946.009l0,-9882.931Zm-3273.275,4363.975c212.122,-191.63 428.038,-418.551 609.423,-673.932c92.21,5.692 188.974,4.933 289.533,-3.036c427.658,-33.393 680.762,-111.943 944.871,-188.974c17.076,19.732 34.911,37.947 52.746,53.884c138.505,124.085 319.511,159.376 477.748,131.675c154.822,-26.942 258.796,-174.175 231.854,-328.997c-26.942,-154.822 -174.554,-258.416 -329.377,-231.854c-5.313,1.138 -4.554,-7.21 -6.83,-15.558c0,-1.138 -0.379,-2.277 -0.759,-3.415c0,-1.138 -0.379,-2.277 -0.759,-3.036c-4.933,-25.424 -6.071,-54.643 -4.554,-88.795c36.429,-685.316 54.643,-1308.399 62.232,-1749.339l0,-11.005c1.518,-81.965 2.656,-157.478 3.036,-225.782c5.692,-552.579 -180.626,-995.454 -755.138,-1098.479c-489.891,-87.884 -1187.35,20.947 -2438.07,78.701c-119.911,5.54 -236.787,10.018 -347.591,13.699l-3.795,0.114c-456.877,15.027 -806.745,15.786 -806.745,15.786c-157.099,0.342 -284.6,128.146 -284.22,285.207c0.379,157.061 128.26,284.334 285.359,283.992c0,0 215.537,-0.455 530.494,-7.855c-0.759,1105.043 53.884,3015.276 143.438,4186.688c-0.759,21.25 0.759,42.5 4.933,63.371c28.08,354.421 59.197,635.226 93.349,796.12c32.255,153.684 183.282,252.345 336.966,219.711c153.684,-32.255 252.345,-183.282 219.711,-336.966c-23.147,-110.425 -45.156,-278.528 -65.268,-488.752c612.079,-85.759 2100.725,-286.876 2465.771,-268.662c137.367,6.83 178.349,139.264 217.055,290.292c106.63,414.377 64.13,1018.867 61.474,1492.44c-7.589,1297.395 28.08,2412.266 44.777,2857.001c-124.465,40.223 -302.814,85 -487.994,88.795c-184.041,3.795 -381.743,-30.737 -514.177,-195.046c-92.21,-114.599 -149.889,-283.461 -170.001,-519.869c-61.474,-726.298 81.585,-1901.884 120.67,-2769.344c11.384,-251.207 -144.197,-321.028 -229.577,-342.658c-62.612,-15.938 -185.179,-21.25 -313.06,92.21c-92.59,82.724 -274.734,326.72 -517.971,510.003c-171.519,129.018 -381.364,235.269 -615.115,125.603c-303.193,-142.3 -559.713,-158.996 -760.45,-113.46c-360.872,81.206 -569.199,360.113 -607.146,646.99c-61.094,458.395 197.322,705.048 583.24,923.621c343.796,195.046 832.928,365.046 882.638,1021.902c23.906,316.854 -188.215,612.458 -488.373,620.427c-234.131,6.451 -489.511,-155.581 -738.821,-521.387c-88.416,-129.777 -265.626,-163.17 -395.404,-74.755c-129.777,88.416 -163.55,265.626 -75.134,395.404c398.439,584.757 850.004,779.803 1224.537,769.937c612.838,-16.317 1089.447,-585.137 1040.876,-1232.506c-59.197,-781.321 -517.212,-1109.939 -956.255,-1355.833c-136.987,-77.032 -270.559,-143.438 -377.569,-220.849c-85.759,-61.853 -151.786,-130.157 -135.469,-250.827c22.389,-170.001 238.305,-245.135 561.61,-93.349c369.6,173.416 714.155,105.871 1010.139,-61.474c99.42,-56.54 202.635,-134.331 299.019,-217.055c-54.643,768.04 -128.26,1619.182 -79.688,2195.591c32.255,379.846 145.715,644.334 293.707,828.754c252.724,314.198 617.391,413.998 969.536,406.788c460.672,-9.107 887.951,-205.671 887.951,-205.671c105.492,-48.572 170.76,-155.961 165.447,-271.698c0,0 -62.612,-1364.56 -53.125,-3033.832c3.036,-519.869 37.947,-1182.796 -78.929,-1637.397c-110.425,-429.556 -350.247,-697.838 -740.339,-717.191c-257.278,-12.902 -1052.639,77.411 -1736.437,163.929Zm-813.575,-70.581c243.617,-174.934 561.23,-434.868 826.477,-758.932c-337.345,-175.313 -540.739,-482.302 -569.579,-857.214c-42.5,-553.262 269.421,-1051.501 1482.195,-1425.275c255.001,-78.549 609.423,-168.862 834.446,-224.644l0,-7.21c2.656,-250.827 -25.804,-485.793 -286.497,-532.543c-464.467,-83.331 -1125.497,32.293 -2311.328,87.05c-27.701,1.29 -55.782,2.542 -83.483,3.719c-1.897,961.264 37.947,2563.749 107.768,3715.05Zm1319.783,-1188.868c8.728,1.138 17.455,2.656 26.563,4.554c97.902,15.938 206.05,19.353 321.787,10.625c379.846,-29.978 609.043,-100.938 842.794,-170.76c25.804,-493.306 42.121,-952.84 51.607,-1331.926c-205.671,51.987 -460.672,119.152 -655.718,179.108c-366.564,112.701 -632.95,229.957 -816.611,360.113c-200.738,142.3 -279.667,295.225 -265.626,477.368c19.353,255.76 210.224,417.033 495.203,470.918Z"/></g></g><g><g id="box-outter" serif:id="box outter"><path d="M7400.371,2003.159c0,-755.998 -613.796,-1369.77 -1369.78,-1369.77l-4623.681,0c-756.021,0 -1369.78,613.771 -1369.78,1369.77l0,10181.198c0,755.99 613.76,1369.753 1369.78,1369.753l4623.681,0c755.985,0 1369.78,-613.763 1369.78,-1369.753l0,-10181.198Zm-253.005,-0c0,-616.375 -500.384,-1116.792 -1116.776,-1116.792l-4623.681,-0c-616.392,0 -1116.812,500.418 -1116.812,1116.792l0,10181.198c0,616.371 500.42,1116.792 1116.812,1116.792l4623.681,0c616.392,0 1116.776,-500.422 1116.776,-1116.792l0,-10181.198Z"/></g></g></g></svg>